HIERARCHY
ROOT Hips
{
	OFFSET 0.000000 0.000000 0.000000
	CHANNELS 6 Xposition Yposition Zposition Zrotation Yrotation Xrotation 
	JOINT LeftUpLeg_virtual
	{
		OFFSET 0.000000 0.000000 0.000000
		CHANNELS 3 Zrotation Yrotation Xrotation
		JOINT LeftUpLeg
		{
			OFFSET 8.479694 -4.795517 -0.379053
			CHANNELS 3 Zrotation Yrotation Xrotation
			JOINT LeftLeg
			{
				OFFSET 0.485052 -32.551468 0.112863
				CHANNELS 3 Zrotation Yrotation Xrotation
				JOINT LeftFoot
				{
					OFFSET 0.438033 -32.635670 -3.012641
					CHANNELS 3 Zrotation Yrotation Xrotation
					JOINT LeftToeBase
					{
						OFFSET 0.970169 -13.225353 11.864223
						CHANNELS 3 Zrotation Yrotation Xrotation
						End Site
						{
							OFFSET 0.000000 0.000000 0.000000
						}
					}
				}
			}
		}
	}
	JOINT RightUpLeg_virtual
	{
		OFFSET 0.000000 0.000000 0.000000
		CHANNELS 3 Zrotation Yrotation Xrotation
		JOINT RightUpLeg
		{
			OFFSET -8.479694 -4.795517 -0.379053
			CHANNELS 3 Zrotation Yrotation Xrotation
			JOINT RightLeg
			{
				OFFSET -0.484100 -32.551483 0.112903
				CHANNELS 3 Zrotation Yrotation Xrotation
				JOINT RightFoot
				{
					OFFSET -0.438985 -32.635651 -3.012681
					CHANNELS 3 Zrotation Yrotation Xrotation
					JOINT RightToeBase
					{
						OFFSET -0.970169 -13.225354 11.864223
						CHANNELS 3 Zrotation Yrotation Xrotation
						End Site
						{
							OFFSET 0.000000 0.000000 0.000000
						}
					}
				}
			}
		}
	}
	JOINT Spine_virtual
	{
		OFFSET 0.000000 0.000000 0.000000
		CHANNELS 3 Zrotation Yrotation Xrotation
		JOINT Spine
		{
			OFFSET 0.000000 7.722015 1.166203
			CHANNELS 3 Zrotation Yrotation Xrotation
			JOINT Spine1
			{
				OFFSET 0.000000 12.024086 0.248766
				CHANNELS 3 Zrotation Yrotation Xrotation
				JOINT Spine2
				{
					OFFSET -0.000000 11.503036 -0.491240
					CHANNELS 3 Zrotation Yrotation Xrotation
					JOINT Neck_virtual
					{
						OFFSET 0.000000 0.000000 0.000000
						CHANNELS 3 Zrotation Yrotation Xrotation
						JOINT Neck
						{
							OFFSET 0.000000 18.430687 -3.123054
							CHANNELS 3 Zrotation Yrotation Xrotation
							JOINT Head
							{
								OFFSET -0.000000 9.051071 1.034021
								CHANNELS 3 Zrotation Yrotation Xrotation
								End Site
								{
									OFFSET 0.000000 0.000000 0.000000
								}
							}
						}
					}
					JOINT LeftShoulder_virtual
					{
						OFFSET 0.000000 0.000000 0.000000
						CHANNELS 3 Zrotation Yrotation Xrotation
						JOINT LeftShoulder
						{
							OFFSET 6.197824 13.665230 -4.064723
							CHANNELS 3 Zrotation Yrotation Xrotation
							JOINT LeftArm
							{
								OFFSET 7.778132 -0.187073 -1.709282
								CHANNELS 3 Zrotation Yrotation Xrotation
								JOINT LeftForeArm
								{
									OFFSET 21.954697 0.000000 -2.041093
									CHANNELS 3 Zrotation Yrotation Xrotation
									JOINT LeftHand
									{
										OFFSET 22.992908 0.000000 -0.870901
										CHANNELS 3 Zrotation Yrotation Xrotation
										End Site
										{
											OFFSET 0.000000 0.000000 0.000000
										}
									}
								}
							}
						}
					}
					JOINT RightShoulder_virtual
					{
						OFFSET 0.000000 0.000000 0.000000
						CHANNELS 3 Zrotation Yrotation Xrotation
						JOINT RightShoulder
						{
							OFFSET -6.197824 13.665230 -4.064723
							CHANNELS 3 Zrotation Yrotation Xrotation
							JOINT RightArm
							{
								OFFSET -7.778132 -0.187073 -1.709282
								CHANNELS 3 Zrotation Yrotation Xrotation
								JOINT RightForeArm
								{
									OFFSET -21.954697 0.000000 -2.041093
									CHANNELS 3 Zrotation Yrotation Xrotation
									JOINT RightHand
									{
										OFFSET -22.992908 0.000000 -0.870901
										CHANNELS 3 Zrotation Yrotation Xrotation
										End Site
										{
											OFFSET 0.000000 0.000000 0.000000
										}
									}
								}
							}
						}
					}
				}
			}
		}
	}
}
MOTION
Frames: 4
Frame Time: 0.033333
63.173901 80.809563 -8.357302 179.981099 2.648784 -179.956292 -2.156737 1.032446 11.103050 -2.768240 -4.217581 -31.415838 10.948158 2.008315 36.213619 -0.176509 -9.545096 -11.843735 0.000000 0.000000 0.000000 1.458865 1.197676 12.335958 -4.954685 2.167405 -37.802997 1.537606 5.094805 61.371388 8.336004 10.246104 -9.674049 0.000000 0.000000 0.000000 5.206015 3.022860 1.419853 3.087531 3.084487 3.438536 1.479673 -3.253983 12.838589 0.018438 -0.031836 -0.019449 1.441147 -2.841616 14.378672 0.018878 -5.175714 -11.009178 0.000000 0.000000 0.000000 2.362690 -2.043435 10.865544 2.112908 -8.323371 5.066679 -49.089710 -0.376875 29.318980 -39.034780 -74.537253 39.868101 0.000000 0.000000 0.000000 -0.715136 -0.514538 11.178147 35.404678 -0.591177 -1.052174 44.269717 7.517839 -7.532715 0.422195 27.502378 -3.922242 0.000000 0.000000 0.000000 
62.919640 80.930183 -10.147206 -179.994773 2.777563 -179.932400 -2.243319 1.283924 10.549012 -2.981124 -2.951962 -29.070456 10.932035 2.756081 35.791083 -0.738036 -10.211078 -13.272345 0.000000 0.000000 0.000000 1.547740 1.241079 11.856612 -4.863917 2.735411 -40.401867 1.589090 5.442760 57.630964 8.137751 10.752694 -9.265082 0.000000 0.000000 0.000000 5.283645 3.076599 1.139878 3.329930 2.852851 3.513797 1.372231 -3.426986 12.832463 -0.028410 0.010626 -0.008501 1.452503 -2.651195 14.543983 -0.092565 -5.251890 -10.876672 0.000000 0.000000 0.000000 2.393088 -2.055920 11.001123 2.141441 -8.454673 5.120873 -48.356810 -2.058754 28.263075 -40.632584 -74.649460 40.942135 0.000000 0.000000 0.000000 -0.750409 -0.435353 11.234841 35.640726 -0.556009 -1.287147 44.149264 7.874538 -7.946364 0.639307 27.199383 -3.843608 0.000000 0.000000 0.000000 
62.649830 80.943031 -11.851602 -179.930843 2.877660 179.991863 -2.116843 1.459911 10.094285 -3.158651 -1.652257 -26.844652 10.266258 3.179826 35.492036 -0.982347 -10.658742 -14.665161 0.000000 0.000000 0.000000 1.881808 1.061698 11.443860 -4.856337 3.437635 -42.292753 1.349480 5.623372 51.877971 8.438363 11.084175 -8.017016 0.000000 0.000000 0.000000 5.634165 2.915310 0.999774 3.759542 2.824885 3.518830 1.269475 -3.496140 12.903392 -0.020374 -0.008399 -0.047886 1.281073 -2.706564 14.709021 -0.287626 -5.219218 -10.689825 0.000000 0.000000 0.000000 2.260823 -2.100548 11.094566 2.123237 -8.499854 5.241542 -47.678897 -3.702302 27.336401 -42.509499 -74.796842 42.732068 0.000000 0.000000 0.000000 -0.927514 -0.445715 11.325786 35.903972 -0.479226 -1.392255 43.901314 8.176117 -8.540024 0.860339 26.426536 -3.825524 0.000000 0.000000 0.000000 
62.476055 80.820091 -13.577419 -179.865300 2.420122 179.951552 -1.879148 1.779972 9.755073 -3.186866 -0.495804 -24.927149 9.805569 3.678578 35.513780 -1.401272 -11.533629 -16.125669 0.000000 0.000000 0.000000 2.364968 0.567054 11.150578 -4.790225 4.028934 -43.777203 0.909482 5.687940 45.089548 9.024903 11.025072 -6.206055 0.000000 0.000000 0.000000 6.197954 2.619723 1.050570 4.325093 2.762901 3.277844 1.080563 -3.642232 12.908357 -0.059507 -0.090257 -0.035646 1.031082 -2.755572 14.814743 -0.585011 -5.148565 -10.507207 0.000000 0.000000 0.000000 2.035093 -2.118699 11.140921 1.995302 -8.353642 5.357689 -46.929581 -5.100928 26.547045 -44.889137 -74.867862 45.030068 0.000000 0.000000 0.000000 -1.183219 -0.489081 11.385664 36.123983 -0.227575 -1.242096 43.589120 8.271155 -9.336160 0.860417 25.598659 -3.992925 0.000000 0.000000 0.000000 
